<?xml version="1.0" standalone="no"?>
<!DOCTYPE svg PUBLIC "-//W3C//DTD SVG 20010904//EN"
 "http://www.w3.org/TR/2001/REC-SVG-20010904/DTD/svg10.dtd">
<svg version="1.0" xmlns="http://www.w3.org/2000/svg"
 width="700.000000pt" height="700.000000pt" viewBox="0 0 700.000000 700.000000"
 preserveAspectRatio="xMidYMid meet">
<metadata>
Created by potrace 1.14, written by Peter Selinger 2001-2017
</metadata>
<g transform="translate(0.000000,700.000000) scale(0.100000,-0.100000)"
fill="#000000" stroke="none">
<path d="M3222 6989 c-638 -57 -1235 -274 -1742 -633 -236 -168 -532 -445
-704 -661 -483 -606 -756 -1353 -767 -2094 l-2 -133 1724 -1725 c948 -948
1731 -1728 1739 -1732 21 -11 342 4 485 23 587 80 1111 287 1589 629 239 171
494 412 680 642 191 237 384 562 506 850 185 436 283 967 267 1450 -31 923
-397 1754 -1058 2401 -549 536 -1222 862 -1994 965 -174 23 -561 33 -723 18z
m-97 -2283 c162 -49 294 -134 388 -252 l49 -61 51 54 c191 202 466 304 782
290 429 -19 713 -275 802 -725 13 -64 16 -203 20 -804 5 -778 4 -802 -44 -870
-71 -103 -253 -119 -346 -30 -65 62 -61 12 -68 842 -4 563 -9 768 -19 805 -46
181 -156 297 -329 349 -72 21 -230 21 -302 0 -166 -50 -294 -175 -352 -343
-21 -65 -22 -74 -27 -806 l-5 -741 -26 -49 c-37 -74 -92 -108 -179 -113 -81
-5 -129 9 -176 51 -73 64 -68 8 -75 847 -4 678 -7 761 -22 815 -30 101 -64
163 -120 219 -94 94 -204 136 -357 136 -160 0 -264 -42 -371 -149 -72 -72
-117 -149 -146 -252 -17 -59 -18 -118 -18 -784 l0 -720 -30 -54 c-18 -32 -46
-64 -69 -80 -35 -23 -49 -26 -132 -26 -87 0 -95 2 -136 30 -23 17 -54 51 -68
75 l-25 45 0 1075 0 1075 23 43 c45 85 150 131 253 112 94 -18 151 -70 172
-159 l11 -48 71 53 c179 138 336 186 580 180 126 -3 164 -8 240 -30z"/>
<path d="M10 3409 c0 -32 102 -136 1683 -1717 1615 -1615 1683 -1682 1718
-1682 35 0 -19 55 -1678 1712 -942 942 -1715 1715 -1718 1717 -3 2 -5 -11 -5
-30z"/>
</g>
</svg>
