<svg width="823" height="460" viewBox="0 0 823 460" fill="none" xmlns="http://www.w3.org/2000/svg">
<path d="M193.161 355.794C189.347 355.794 186.182 354.538 183.667 352.067C181.151 349.595 179.934 346.435 179.934 342.586V270.388H14.5519C11.0219 270.388 8.01943 269.213 5.50381 266.863C2.98819 264.513 1.5275 261.717 1.08118 258.476C0.634861 255.235 1.44635 252.156 3.51565 249.238L182.125 16.7605C183.586 15.0184 185.046 13.6814 186.547 12.79C188.008 11.8987 190.24 11.453 193.161 11.453C196.975 11.453 200.14 12.709 202.656 15.2209C205.171 17.7329 206.429 21.0147 206.429 25.1472V246.645H247.004C250.818 246.645 253.982 247.456 256.498 249.076C259.014 250.697 260.231 253.979 260.231 259.003C260.231 261.636 258.973 264.229 256.498 266.701C254.023 269.172 250.818 270.428 247.004 270.428H206.429V342.627C206.429 346.435 205.171 349.595 202.656 352.107C200.14 354.619 196.975 355.794 193.161 355.794ZM27.3735 259.813L25.1825 246.605H179.934V51.9685L185.209 55.4933L27.3735 259.813Z" fill="white"/>
<path d="M735.116 355.794C731.302 355.794 728.137 354.538 725.621 352.067C723.106 349.595 721.888 346.435 721.888 342.586V270.388H556.547C553.017 270.388 550.014 269.213 547.499 266.863C544.983 264.513 543.522 261.717 543.076 258.476C542.63 255.235 543.441 252.156 545.511 249.238L724.12 16.7605C725.581 15.0184 727.041 13.6814 728.542 12.79C730.003 11.8987 732.235 11.453 735.156 11.453C738.97 11.453 742.135 12.709 744.651 15.2209C747.166 17.7329 748.424 21.0147 748.424 25.1472V246.645H788.999C792.813 246.645 795.977 247.456 798.493 249.076C801.009 250.697 802.226 253.979 802.226 259.003C802.226 261.636 800.968 264.229 798.493 266.701C796.018 269.172 792.813 270.428 788.999 270.428H748.424V342.627C748.424 346.435 747.166 349.595 744.651 352.107C742.135 354.619 738.93 355.794 735.116 355.794ZM569.287 259.813L567.096 246.605H721.888V51.9685L727.163 55.4933L569.287 259.813Z" fill="white"/>
<path d="M9.52069 458.622C8.26288 458.622 7.20794 458.177 6.35587 457.326C5.50381 456.475 5.05749 455.422 5.05749 454.166V396.148C5.05749 394.851 5.50381 393.757 6.35587 392.947C7.20794 392.137 8.26288 391.691 9.52069 391.691H26.6837C30.9846 391.691 34.7581 392.623 38.0852 394.527C41.4123 396.431 44.0091 399.024 45.8349 402.387C47.7013 405.709 48.6346 409.558 48.6346 413.893C48.6346 418.066 47.7013 421.794 45.8349 425.035C43.9685 428.276 41.3717 430.829 38.0852 432.652C34.7581 434.475 30.9441 435.407 26.6837 435.407H13.9839V454.166C13.9839 455.422 13.5781 456.475 12.7261 457.326C11.9146 458.177 10.8596 458.622 9.52069 458.622ZM13.9839 427.182H26.6837C29.3211 427.182 31.6338 426.615 33.622 425.481C35.6101 424.346 37.1925 422.766 38.3286 420.781C39.4647 418.796 40.0328 416.486 40.0328 413.934C40.0328 411.179 39.4647 408.788 38.3286 406.682C37.1925 404.615 35.6101 402.954 33.622 401.739C31.6338 400.523 29.3211 399.956 26.6837 399.956H13.9839V427.182Z" fill="white"/>
<path d="M53.3006 458.622C51.7182 458.622 50.4604 457.934 49.6084 456.556C48.7563 455.179 48.6751 453.72 49.3649 452.181L73.4662 394.689C74.3183 392.704 75.7384 391.691 77.686 391.691C79.7553 391.691 81.1348 392.704 81.9057 394.689L106.088 452.343C106.697 453.923 106.616 455.381 105.804 456.678C104.993 457.974 103.735 458.622 102.071 458.622C101.219 458.622 100.408 458.379 99.6368 457.893C98.8659 457.407 98.2978 456.718 97.9732 455.867L76.7122 403.076H79.1061L57.3987 455.867C56.9929 456.799 56.4249 457.448 55.654 457.934C54.883 458.379 54.1121 458.622 53.3006 458.622ZM57.845 443.875L61.2938 436.501H94.9301L98.379 443.875H57.845Z" fill="white"/>
<path d="M144.593 459.473C139.968 459.473 135.626 458.622 131.61 456.84C127.593 455.098 124.063 452.667 121.06 449.547C118.058 446.427 115.704 442.781 114.041 438.608C112.337 434.435 111.525 429.937 111.525 425.076C111.525 420.295 112.377 415.798 114.041 411.665C115.745 407.532 118.058 403.886 121.06 400.766C124.063 397.647 127.552 395.216 131.569 393.433C135.586 391.65 139.927 390.759 144.593 390.759C149.016 390.759 152.789 391.326 155.954 392.461C159.119 393.595 162.324 395.499 165.53 398.133C165.976 398.457 166.341 398.822 166.585 399.186C166.828 399.551 167.031 399.916 167.112 400.321C167.193 400.685 167.234 401.131 167.234 401.658C167.234 402.752 166.828 403.643 166.057 404.413C165.286 405.142 164.353 405.547 163.217 405.628C162.122 405.669 161.067 405.304 160.093 404.534C157.983 402.711 155.792 401.293 153.52 400.321C151.248 399.348 148.286 398.862 144.553 398.862C141.185 398.862 138.02 399.551 135.018 400.928C132.056 402.306 129.419 404.17 127.146 406.601C124.874 408.991 123.129 411.787 121.872 414.947C120.614 418.107 119.965 421.51 119.965 425.116C119.965 428.763 120.573 432.166 121.872 435.367C123.129 438.527 124.874 441.322 127.146 443.713C129.419 446.103 132.015 447.967 135.018 449.344C137.98 450.681 141.185 451.37 144.553 451.37C147.474 451.37 150.233 450.884 152.83 449.871C155.427 448.858 157.942 447.481 160.336 445.698C161.351 444.969 162.365 444.645 163.379 444.726C164.394 444.807 165.205 445.212 165.895 445.941C166.585 446.67 166.909 447.643 166.909 448.899C166.909 449.466 166.828 450.033 166.625 450.56C166.423 451.087 166.057 451.613 165.57 452.059C162.527 454.571 159.241 456.435 155.711 457.691C152.221 458.866 148.489 459.473 144.593 459.473ZM166.991 448.858L158.429 447.157V431.801H146.582C145.324 431.801 144.269 431.437 143.417 430.667C142.565 429.937 142.118 428.965 142.118 427.831C142.118 426.696 142.565 425.764 143.417 424.995C144.269 424.265 145.324 423.901 146.582 423.901H162.609C163.907 423.901 164.962 424.306 165.773 425.157C166.585 425.967 166.991 427.061 166.991 428.357V448.858Z" fill="white"/>
<path d="M185.695 458.622C184.438 458.622 183.383 458.177 182.531 457.326C181.679 456.475 181.232 455.422 181.232 454.166V396.148C181.232 394.851 181.679 393.757 182.531 392.947C183.383 392.137 184.438 391.691 185.695 391.691H224.485C225.783 391.691 226.838 392.096 227.65 392.866C228.461 393.636 228.867 394.649 228.867 395.905C228.867 397.12 228.461 398.092 227.65 398.822C226.838 399.551 225.783 399.916 224.485 399.916H190.159V420.741H214.787C216.086 420.741 217.141 421.146 217.952 421.915C218.764 422.685 219.169 423.658 219.169 424.873C219.169 426.089 218.764 427.061 217.952 427.831C217.141 428.601 216.086 429.006 214.787 429.006H190.159V450.438H224.485C225.783 450.438 226.838 450.803 227.65 451.532C228.461 452.262 228.867 453.234 228.867 454.449C228.867 455.705 228.461 456.718 227.65 457.488C226.838 458.258 225.783 458.663 224.485 458.663H185.695V458.622Z" fill="white"/>
<path d="M270.821 458.622C269.563 458.622 268.508 458.177 267.697 457.326C266.885 456.475 266.439 455.422 266.439 454.166V396.148C266.439 394.851 266.845 393.757 267.697 392.947C268.508 392.137 269.563 391.691 270.821 391.691C272.2 391.691 273.336 392.218 274.27 393.311L311.679 443.024V396.148C311.679 394.851 312.126 393.757 312.978 392.947C313.83 392.137 314.885 391.691 316.143 391.691C317.441 391.691 318.496 392.096 319.307 392.947C320.119 393.757 320.525 394.851 320.525 396.148V454.166C320.525 455.422 320.119 456.475 319.307 457.326C318.496 458.177 317.441 458.622 316.143 458.622C315.575 458.622 314.966 458.501 314.317 458.217C313.668 457.974 313.14 457.569 312.734 457.042L275.284 407.37V454.166C275.284 455.422 274.878 456.475 274.026 457.326C273.215 458.177 272.119 458.622 270.821 458.622Z" fill="white"/>
<path d="M368.646 459.473C363.615 459.473 358.989 458.622 354.851 456.961C350.672 455.26 347.101 452.91 344.098 449.831C341.096 446.792 338.783 443.146 337.12 438.932C335.456 434.718 334.645 430.14 334.645 425.076C334.645 420.052 335.456 415.433 337.12 411.3C338.783 407.127 341.096 403.521 344.098 400.442C347.101 397.404 350.672 395.013 354.851 393.311C359.03 391.61 363.615 390.8 368.646 390.8C373.677 390.8 378.262 391.65 382.401 393.311C386.539 395.013 390.151 397.363 393.153 400.442C396.196 403.481 398.55 407.127 400.173 411.3C401.836 415.473 402.648 420.052 402.648 425.076C402.648 430.1 401.836 434.718 400.173 438.932C398.509 443.146 396.156 446.751 393.153 449.831C390.11 452.869 386.539 455.26 382.401 456.961C378.262 458.622 373.677 459.473 368.646 459.473ZM368.646 451.411C372.379 451.411 375.787 450.722 378.911 449.385C382.036 448.048 384.714 446.184 387.026 443.834C389.299 441.484 391.084 438.689 392.301 435.488C393.518 432.287 394.127 428.844 394.127 425.116C394.127 421.389 393.518 417.945 392.301 414.744C391.084 411.543 389.299 408.748 387.026 406.398C384.754 404.048 382.036 402.184 378.911 400.888C375.787 399.591 372.379 398.903 368.646 398.903C364.913 398.903 361.505 399.551 358.381 400.888C355.256 402.184 352.579 404.048 350.306 406.398C348.034 408.788 346.29 411.543 345.032 414.744C343.774 417.945 343.125 421.389 343.125 425.116C343.125 428.844 343.733 432.287 345.032 435.488C346.29 438.689 348.034 441.484 350.306 443.834C352.579 446.225 355.256 448.048 358.381 449.385C361.505 450.762 364.913 451.411 368.646 451.411Z" fill="white"/>
<path d="M408.369 399.915C407.151 399.915 406.178 399.51 405.407 398.741C404.636 397.971 404.23 396.998 404.23 395.783C404.23 394.567 404.636 393.595 405.407 392.825C406.178 392.055 407.151 391.65 408.369 391.65H454.258C455.476 391.65 456.449 392.055 457.22 392.825C457.991 393.595 458.397 394.567 458.397 395.783C458.397 396.998 457.991 397.971 457.22 398.741C456.449 399.51 455.476 399.915 454.258 399.915H408.369ZM431.374 458.622C430.117 458.622 429.062 458.177 428.21 457.326C427.357 456.475 426.911 455.422 426.911 454.166V391.691H435.838V454.166C435.838 455.422 435.391 456.475 434.539 457.326C433.687 458.177 432.632 458.622 431.374 458.622Z" fill="white"/>
<path d="M492.48 458.622C491.222 458.622 490.167 458.177 489.315 457.326C488.463 456.475 488.017 455.422 488.017 454.166V396.148C488.017 394.851 488.463 393.757 489.315 392.947C490.167 392.137 491.222 391.691 492.48 391.691H531.269C532.567 391.691 533.622 392.096 534.434 392.866C535.245 393.636 535.651 394.649 535.651 395.905C535.651 397.12 535.245 398.092 534.434 398.822C533.622 399.551 532.567 399.916 531.269 399.916H496.943V420.741H521.572C522.87 420.741 523.925 421.146 524.737 421.915C525.548 422.685 525.954 423.658 525.954 424.873C525.954 426.089 525.548 427.061 524.737 427.831C523.925 428.601 522.87 429.006 521.572 429.006H496.943V454.206C496.943 455.462 496.497 456.516 495.645 457.367C494.792 458.177 493.738 458.622 492.48 458.622Z" fill="white"/>
<path d="M578.011 459.473C572.98 459.473 568.354 458.622 564.216 456.961C560.036 455.26 556.466 452.91 553.463 449.831C550.461 446.792 548.148 443.146 546.484 438.932C544.821 434.718 544.009 430.14 544.009 425.076C544.009 420.052 544.821 415.433 546.484 411.3C548.148 407.127 550.461 403.521 553.463 400.442C556.466 397.404 560.036 395.013 564.216 393.311C568.395 391.61 572.98 390.8 578.011 390.8C583.042 390.8 587.627 391.65 591.766 393.311C595.904 395.013 599.515 397.363 602.518 400.442C605.561 403.481 607.914 407.127 609.537 411.3C611.201 415.473 612.012 420.052 612.012 425.076C612.012 430.1 611.201 434.718 609.537 438.932C607.874 443.146 605.52 446.751 602.518 449.831C599.475 452.869 595.904 455.26 591.766 456.961C587.627 458.622 583.042 459.473 578.011 459.473ZM578.011 451.411C581.744 451.411 585.152 450.722 588.276 449.385C591.4 448.048 594.078 446.184 596.391 443.834C598.663 441.484 600.449 438.689 601.666 435.488C602.883 432.287 603.492 428.844 603.492 425.116C603.492 421.389 602.883 417.945 601.666 414.744C600.449 411.543 598.663 408.748 596.391 406.398C594.119 404.048 591.4 402.184 588.276 400.888C585.152 399.591 581.744 398.903 578.011 398.903C574.278 398.903 570.87 399.551 567.746 400.888C564.621 402.184 561.943 404.048 559.671 406.398C557.399 408.788 555.654 411.543 554.396 414.744C553.139 417.945 552.489 421.389 552.489 425.116C552.489 428.844 553.098 432.287 554.396 435.488C555.654 438.689 557.399 441.484 559.671 443.834C561.943 446.225 564.621 448.048 567.746 449.385C570.87 450.762 574.319 451.411 578.011 451.411Z" fill="white"/>
<path d="M654.129 460C648.651 460 643.782 458.987 639.522 456.961C635.302 454.936 631.975 452.14 629.622 448.534C627.228 444.928 626.051 440.836 626.051 436.177V396.148C626.051 394.851 626.497 393.757 627.349 392.947C628.202 392.137 629.257 391.691 630.514 391.691C631.813 391.691 632.908 392.096 633.72 392.947C634.531 393.757 634.978 394.851 634.978 396.148V436.177C634.978 439.256 635.789 441.971 637.412 444.361C639.035 446.751 641.307 448.575 644.188 449.912C647.069 451.249 650.396 451.937 654.088 451.937C657.699 451.937 660.864 451.249 663.664 449.912C666.423 448.575 668.614 446.711 670.196 444.361C671.779 442.011 672.55 439.256 672.55 436.177V396.148C672.55 394.851 672.996 393.757 673.848 392.947C674.7 392.137 675.755 391.691 677.013 391.691C678.311 391.691 679.366 392.096 680.178 392.947C680.989 393.757 681.395 394.851 681.395 396.148V436.177C681.395 440.796 680.218 444.928 677.905 448.534C675.593 452.14 672.387 454.936 668.249 456.961C664.11 458.987 659.444 460 654.129 460Z" fill="white"/>
<path d="M702.94 458.622C701.682 458.622 700.627 458.177 699.816 457.326C699.004 456.475 698.558 455.422 698.558 454.166V396.148C698.558 394.851 698.964 393.757 699.816 392.947C700.627 392.137 701.682 391.691 702.94 391.691C704.319 391.691 705.456 392.218 706.389 393.311L743.799 443.024V396.148C743.799 394.851 744.245 393.757 745.097 392.947C745.949 392.137 747.004 391.691 748.262 391.691C749.56 391.691 750.615 392.096 751.427 392.947C752.238 393.757 752.644 394.851 752.644 396.148V454.166C752.644 455.422 752.238 456.475 751.427 457.326C750.615 458.177 749.56 458.622 748.262 458.622C747.694 458.622 747.085 458.501 746.436 458.217C745.787 457.974 745.259 457.569 744.853 457.042L707.403 407.37V454.166C707.403 455.422 706.997 456.475 706.145 457.326C705.334 458.177 704.279 458.622 702.94 458.622Z" fill="white"/>
<path d="M774.27 458.622C773.012 458.622 771.957 458.177 771.105 457.326C770.253 456.475 769.807 455.422 769.807 454.166V396.148C769.807 394.851 770.253 393.757 771.105 392.947C771.957 392.137 773.012 391.691 774.27 391.691H789.81C794.72 391.691 799.223 392.501 803.24 394.122C807.257 395.742 810.787 398.052 813.749 401.05C816.711 404.048 819.024 407.573 820.606 411.625C822.189 415.676 823 420.173 823 425.076C823 429.978 822.189 434.475 820.606 438.567C819.024 442.659 816.711 446.184 813.749 449.182C810.787 452.18 807.257 454.49 803.24 456.111C799.223 457.731 794.72 458.541 789.81 458.541H774.27V458.622ZM778.733 450.722H789.81C794.598 450.722 798.858 449.628 802.55 447.44C806.243 445.252 809.124 442.214 811.274 438.365C813.384 434.516 814.439 430.1 814.439 425.116C814.439 420.092 813.384 415.676 811.274 411.827C809.164 408.019 806.243 405.02 802.55 402.833C798.858 400.645 794.598 399.591 789.81 399.591H778.733V450.722Z" fill="white"/>
<path d="M577.28 148.314C565.636 78.9518 511.631 21.5413 442.979 5.86185C433.971 3.79556 424.68 2.94473 415.55 1.52669C414.658 1.40514 413.765 1.16205 412.872 0.959473C405.447 0.959473 398.022 0.959473 390.597 0.959473C383.943 1.85081 377.288 2.62061 370.675 3.71453C299.426 15.4235 240.146 73.3606 226.879 144.263C225.418 152.082 224.566 160.023 223.43 167.924C223.43 175.338 223.43 182.752 223.43 190.167C224.363 196.933 225.134 203.699 226.229 210.425C237.509 279.747 294.719 339.061 363.818 352.877C371.851 354.498 380.088 355.267 388.203 356.442C388.974 356.564 389.745 356.807 390.516 357.01C397.941 357.01 405.366 357.01 412.791 357.01C419.445 356.118 426.1 355.348 432.713 354.255C502.299 342.991 561.375 286.513 575.698 217.515C577.402 209.371 578.132 201.065 579.35 192.8C579.471 191.909 579.755 191.018 579.918 190.126C579.918 182.712 579.918 175.298 579.918 167.883C579.066 161.36 578.376 154.797 577.28 148.314ZM401.43 336.144C314.763 335.901 244.326 265.485 244.326 178.985C244.326 92.3624 315.047 21.7844 401.795 21.8249C488.584 21.906 559.265 92.565 559.103 179.147C558.941 265.85 488.098 336.387 401.43 336.144Z" fill="url(#paint0_linear_113_131)"/>
<path d="M498.647 217.434H304.822C299.142 217.434 294.516 222.052 294.516 227.725V227.927C294.516 233.599 299.142 238.218 304.822 238.218H410.762C410.762 246.2 410.641 253.817 410.803 261.434C411.087 278.734 423.097 294.089 439.651 298.546C456.855 303.165 474.708 296.074 483.878 280.962C487.692 274.682 489.599 267.835 489.558 260.502C489.558 253.128 489.558 245.754 489.558 238.016H498.687C504.368 238.016 508.993 233.397 508.993 227.725C508.953 222.052 504.327 217.434 498.647 217.434ZM468.419 263.095C467.81 272.13 459.29 279.179 450.039 279.139C440.666 279.058 432.308 271.765 431.821 262.487C431.415 254.546 431.739 246.564 431.739 238.34H468.581C468.5 246.726 468.946 254.951 468.419 263.095Z" fill="url(#paint1_linear_113_131)"/>
<path d="M331.642 147.828C326.814 152.609 322.066 157.309 317.441 161.928C313.465 165.898 313.424 172.34 317.441 176.311C317.684 176.554 317.968 176.837 318.212 177.08C322.188 181.051 328.639 181.051 332.616 177.04C337.282 172.34 342.151 167.478 347.223 162.373C351.97 167.114 356.677 171.854 361.343 176.513C365.319 180.484 371.73 180.484 375.706 176.554C375.747 176.513 375.787 176.473 375.868 176.392C379.845 172.421 379.845 165.979 375.868 162.009C371.121 157.309 366.333 152.487 361.343 147.545C366.13 142.804 370.837 138.145 375.381 133.607C379.358 129.677 379.398 123.235 375.422 119.265C375.3 119.143 375.179 119.022 375.057 118.9C371.081 114.889 364.629 114.889 360.653 118.9C356.027 123.519 351.321 128.3 346.371 133.243C341.502 128.381 336.754 123.6 332.129 118.981C328.153 115.011 321.701 115.011 317.725 118.981C317.603 119.103 317.481 119.224 317.319 119.386C313.343 123.357 313.343 129.839 317.36 133.769C322.026 138.307 326.773 143.047 331.642 147.828Z" fill="url(#paint2_linear_113_131)"/>
<path d="M442.127 147.909C437.339 152.69 432.592 157.39 428.007 161.968C424.03 165.898 424.03 172.299 427.966 176.27C428.209 176.554 428.494 176.797 428.778 177.08C432.754 181.051 439.205 181.091 443.141 177.08C447.807 172.421 452.595 167.6 457.545 162.657C462.13 167.316 466.755 172.016 471.3 176.635C475.235 180.646 481.727 180.686 485.704 176.675C485.866 176.513 486.069 176.311 486.231 176.148C490.207 172.178 490.207 165.776 486.191 161.806C481.484 157.147 476.696 152.366 471.787 147.504C476.534 142.804 481.24 138.145 485.825 133.567C489.802 129.637 489.802 123.195 485.866 119.224C485.582 118.941 485.338 118.697 485.054 118.414C481.078 114.443 474.667 114.443 470.691 118.414C465.984 123.114 461.115 127.976 456.003 133.162C451.378 128.462 446.711 123.721 442.127 119.103C438.191 115.092 431.699 115.051 427.723 119.022C427.682 119.062 427.641 119.103 427.56 119.184C423.584 123.154 423.584 129.596 427.56 133.526C432.389 138.226 437.176 143.007 442.127 147.909Z" fill="url(#paint3_linear_113_131)"/>
<defs>
<linearGradient id="paint0_linear_113_131" x1="580" y1="0.999994" x2="223" y2="357" gradientUnits="userSpaceOnUse">
<stop stop-color="#BB64FF"/>
<stop offset="1" stop-color="#64FFD7"/>
</linearGradient>
<linearGradient id="paint1_linear_113_131" x1="580" y1="0.999994" x2="223" y2="357" gradientUnits="userSpaceOnUse">
<stop stop-color="#BB64FF"/>
<stop offset="1" stop-color="#64FFD7"/>
</linearGradient>
<linearGradient id="paint2_linear_113_131" x1="580" y1="0.999994" x2="223" y2="357" gradientUnits="userSpaceOnUse">
<stop stop-color="#BB64FF"/>
<stop offset="1" stop-color="#64FFD7"/>
</linearGradient>
<linearGradient id="paint3_linear_113_131" x1="580" y1="0.999994" x2="223" y2="357" gradientUnits="userSpaceOnUse">
<stop stop-color="#BB64FF"/>
<stop offset="1" stop-color="#64FFD7"/>
</linearGradient>
</defs>
</svg>
