<?xml version="1.0" encoding="utf-8"?>
<!-- Generator: Adobe Illustrator 22.1.0, SVG Export Plug-In . SVG Version: 6.00 Build 0)  -->
<svg version="1.1" id="Слой_1" xmlns="http://www.w3.org/2000/svg" xmlns:xlink="http://www.w3.org/1999/xlink" x="0px" y="0px"
	 viewBox="0 0 200 200" style="enable-background:new 0 0 200 200;" xml:space="preserve">
<style type="text/css">
	.st0{fill:#FFFFFF;}
</style>
<g>
	<path class="st0" d="M0,98.6c1.2-2.9,1.9-6,3.6-8.5c3.7-5.5,9.3-7.4,15.7-7.4c19.2,0,38.4,0,57.6,0c4.3,0,5.2-1,5.2-5.3
		c0-19.2,0-38.4,0-57.6c0-5,1.2-9.7,4.8-13.4c5.4-5.5,11.8-7.1,19.1-4.7c6.1,2,11,8.2,11.6,14.6c0.2,2,0.3,4,0.3,6
		c0,18.4,0,36.9,0,55.3c0,4,1,5.1,5.1,5.1c19.3,0,38.5,0,57.8,0c5,0,9.7,1.2,13.4,4.8c5.5,5.4,7.1,11.8,4.7,19.1
		c-2,6.1-8.2,11.1-14.6,11.6c-2,0.2-4,0.3-6,0.3c-18.4,0-36.9,0-55.3,0c-4.1,0-5.1,1-5.1,5c0,19.3,0,38.5,0,57.8c0,4.6-1,8.9-4,12.5
		c-2.9,3.6-6.6,5.8-11.2,6.4c-0.2,0-0.5,0.2-0.7,0.3c-1.3,0-2.6,0-3.9,0c-0.2-0.1-0.5-0.3-0.7-0.3c-4.6-0.7-8.3-2.9-11.2-6.4
		c-3-3.7-4-7.9-4-12.5c0-19.2,0-38.4,0-57.6c0-4.3-1-5.3-5.3-5.3c-19.2,0-38.4,0-57.6,0c-6.4,0-12-2-15.7-7.4
		c-1.7-2.5-2.4-5.7-3.6-8.5C0,101.2,0,99.9,0,98.6z"/>
</g>
</svg>
