<?xml version="1.0" encoding="utf-8"?>
<!-- Generator: Adobe Illustrator 22.1.0, SVG Export Plug-In . SVG Version: 6.00 Build 0)  -->
<svg version="1.1" id="Слой_1" xmlns="http://www.w3.org/2000/svg" xmlns:xlink="http://www.w3.org/1999/xlink" x="0px" y="0px"
	 viewBox="0 0 200 200" style="enable-background:new 0 0 200 200;" xml:space="preserve">
<style type="text/css">
	.st0{fill:#FFFFFF;stroke:#FFFFFF;stroke-width:17;stroke-miterlimit:10;}
</style>
<g>
	<path class="st0" d="M23.1,23c0,51.4,0,102.6,0,153.9c0.9,0,1.6,0,2.4,0c15.4,0,30.7,0,46.1,0c5.2,0,8.6,4.7,6.9,9.4
		c-1.1,2.9-3.3,4.5-6.3,4.6c-16.8,0.1-33.5,0.2-50.3,0c-7.1-0.1-12.9-6.6-12.9-14c0-28.2,0-56.4,0-84.6c0-22.9,0-45.8,0-68.6
		C9,15.1,15,9,23.5,9c16,0,31.9,0,47.9,0c5.4,0,9,4.8,7,9.6c-1.1,2.8-3.7,4.4-7.2,4.4c-15.2,0-30.5,0-45.7,0C24.8,23,24,23,23.1,23z
		"/>
	<path class="st0" d="M166.4,107c-0.8,0-1.6,0-2.4,0c-37.2,0-74.3,0-111.5,0c-0.9,0-1.9,0-2.8-0.1c-3.5-0.6-6-3.9-5.7-7.4
		c0.3-3.5,3.1-6.2,6.6-6.4c0.7,0,1.5,0,2.2,0c37.1,0,74.2,0,111.3,0c0.8,0,1.6,0,2.8,0c-0.8-0.9-1.3-1.4-1.8-2
		c-10.8-10.8-21.6-21.7-32.5-32.5c-1.5-1.5-2.6-3.1-2.6-5.3c0-2.9,1.2-5.1,3.7-6.4c2.6-1.3,5.2-1.1,7.6,0.8c0.6,0.5,1.2,1.1,1.7,1.7
		c15.2,15.2,30.4,30.4,45.7,45.5c3.1,3.1,3.1,7.4,0,10.5c-15.3,15.3-30.6,30.6-46,45.8c-1.2,1.2-2.8,2.2-4.4,2.7
		c-3.1,0.8-6.1-0.7-7.6-3.4c-1.5-2.7-0.9-6.1,1.4-8.4c10.9-10.9,21.8-21.9,32.8-32.8c0.6-0.6,1.3-0.9,1.9-1.4
		C166.7,107.4,166.5,107.2,166.4,107z"/>
</g>
</svg>
