<svg width="694" height="694" viewBox="0 0 694 694" fill="none" xmlns="http://www.w3.org/2000/svg">
<circle cx="347" cy="347" r="347" fill="url(#paint0_linear_117_13)"/>
<path d="M494.385 471C487.881 471 482.412 468.916 477.978 464.747C473.839 460.28 471.77 454.772 471.77 448.221V320.477C471.77 301.718 467.188 287.872 458.023 278.939C448.859 269.708 436.886 265.092 422.105 265.092C406.733 265.092 394.021 270.452 383.97 281.172C374.215 291.892 369.337 305.589 369.337 322.264H332.532C332.532 302.909 336.671 285.936 344.948 271.345C353.225 256.457 364.755 244.844 379.536 236.506C394.612 228.169 411.759 224 430.974 224C447.824 224 462.753 227.722 475.761 235.166C488.768 242.611 498.819 253.628 505.914 268.219C513.305 282.512 517 299.931 517 320.477V448.221C517 454.772 514.931 460.28 510.792 464.747C506.653 468.916 501.184 471 494.385 471ZM198.615 471C192.111 471 186.642 468.916 182.208 464.747C178.069 460.28 176 454.772 176 448.221V249.459C176 242.611 178.069 237.102 182.208 232.933C186.642 228.764 192.111 226.68 198.615 226.68C205.414 226.68 210.883 228.764 215.022 232.933C219.161 237.102 221.23 242.611 221.23 249.459V448.221C221.23 454.772 219.161 460.28 215.022 464.747C210.883 468.916 205.414 471 198.615 471ZM346.722 471C340.218 471 334.749 468.916 330.315 464.747C326.176 460.28 324.107 454.772 324.107 448.221V320.477C324.107 301.718 319.524 287.872 310.36 278.939C301.196 269.708 289.223 265.092 274.442 265.092C259.07 265.092 246.358 270.452 236.307 281.172C226.256 291.892 221.23 305.589 221.23 322.264H193.294C193.294 302.909 197.137 285.936 204.823 271.345C212.509 256.457 223.152 244.844 236.75 236.506C250.349 228.169 265.869 224 283.311 224C300.161 224 315.09 227.722 328.098 235.166C341.105 242.611 351.156 253.628 358.251 268.219C365.642 282.512 369.337 299.931 369.337 320.477V448.221C369.337 454.772 367.267 460.28 363.129 464.747C358.99 468.916 353.521 471 346.722 471Z" fill="white"/>
<defs>
<linearGradient id="paint0_linear_117_13" x1="0" y1="694" x2="694" y2="0" gradientUnits="userSpaceOnUse">
<stop stop-color="#64FFD7"/>
<stop offset="1" stop-color="#BB64FF"/>
</linearGradient>
</defs>
</svg>
