<svg id="Слой_1" data-name="Слой 1" xmlns="http://www.w3.org/2000/svg" viewBox="0 0 2408.8 713.5"><defs><style>.cls-1{fill:#fff;}</style></defs><title>mimesis2</title><path class="cls-1" d="M751.9,1569.5V1399.7c0-27.3-4.9-50.5-14.5-69.7s-23.2-33.7-40.7-43.6-37.4-14.8-59.9-14.8q-38.55,0-68.6,16.6a119.67,119.67,0,0,0-35.6,29.7,99.13,99.13,0,0,0-33.6-31.5q-26.1-14.85-60-14.8c-23.4,0-44.1,5.5-62.3,16.6a109.55,109.55,0,0,0-20.8,16.2c-.2-8.6-3-15.6-8.3-20.9-5.5-5.5-12.9-8.3-22-8.3-8.7,0-15.9,2.8-21.7,8.3s-8.6,12.9-8.6,22v264.1c0,8.7,2.9,15.9,8.6,21.7s13,8.6,21.7,8.6c9.1,0,16.4-2.9,22-8.6s8.3-13,8.3-21.7V1402.2q0-33.3,20.2-54.6c13.4-14.2,30.5-21.4,51-21.4q29.7,0,48.1,18.1t18.4,55.5v169.8c0,8.7,2.9,15.9,8.6,21.7s13,8.6,21.7,8.6c9.1,0,16.4-2.9,22-8.6s8.3-13,8.3-21.7V1402.2q0-33.3,19.9-54.6c13.3-14.2,30.2-21.4,50.7-21.4q29.7,0,48.1,18.1t18.4,55.5v169.8c0,8.7,2.9,15.9,8.6,21.7s13,8.6,21.7,8.6c9.1,0,16.4-2.9,22-8.6S751.9,1578.3,751.9,1569.5Z" transform="translate(-295.3 -1143.4)"/><path class="cls-1" d="M888.4,1143.4A39.61,39.61,0,1,0,916,1155,37.72,37.72,0,0,0,888.4,1143.4Z" transform="translate(-295.3 -1143.4)"/><path class="cls-1" d="M888.4,1274.5c-8.7,0-15.9,2.8-21.7,8.3s-8.6,12.9-8.6,22V1569c0,8.7,2.9,15.9,8.6,21.7s13,8.6,21.7,8.6c9.1,0,16.4-2.9,22-8.6s8.3-13,8.3-21.7V1304.9c0-9.1-2.8-16.4-8.3-22S897.5,1274.5,888.4,1274.5Z" transform="translate(-295.3 -1143.4)"/><path class="cls-1" d="M1432.6,1286.4q-26.1-14.85-59.9-14.8-38.55,0-68.6,16.6a119.67,119.67,0,0,0-35.6,29.7,99.13,99.13,0,0,0-33.6-31.5q-26.1-14.85-60-14.8c-23.4,0-44.1,5.5-62.3,16.6a109.55,109.55,0,0,0-20.8,16.2c-.2-8.6-3-15.6-8.3-20.9-5.5-5.5-12.9-8.3-22-8.3-8.7,0-15.9,2.8-21.7,8.3s-8.6,12.9-8.6,22v264.1c0,8.7,2.9,15.9,8.6,21.7s13,8.6,21.7,8.6c9.1,0,16.4-2.9,22-8.6s8.3-13,8.3-21.7V1402.2q0-33.3,20.2-54.6c13.4-14.2,30.5-21.4,51-21.4q29.7,0,48.1,18.1t18.4,55.5v169.8c0,8.7,2.9,15.9,8.6,21.7s13,8.6,21.7,8.6c9.1,0,16.4-2.9,22-8.6s8.3-13,8.3-21.7V1402.2q0-33.3,19.9-54.6c13.3-14.2,30.2-21.4,50.7-21.4q29.7,0,48.1,18.1t18.4,55.5v169.8c0,8.7,2.9,15.9,8.6,21.7s13,8.6,21.7,8.6c9.1,0,16.4-2.9,22-8.6s8.3-13,8.3-21.7V1399.8c0-27.3-4.9-50.5-14.5-69.7S1450,1296.3,1432.6,1286.4Z" transform="translate(-295.3 -1143.4)"/><path class="cls-1" d="M1811.3,1292.7c-22.2-13.6-48.7-20.5-79.5-20.5q-47,0-83.1,21.1a150.34,150.34,0,0,0-56.7,58.2q-20.55,37.05-20.5,85.8c0,32.1,7.2,60.4,21.7,85.2s34.4,44.1,60,58.2,54.7,21.1,87.5,21.1q27.3,0,57.3-10.1t50.2-26.1c6.7-5.1,9.9-11.3,9.5-18.4s-4-13.6-10.7-19.6a25.65,25.65,0,0,0-18.1-6.2,34,34,0,0,0-19.3,6.8c-7.9,5.9-18.3,11.2-31.2,15.7a111.41,111.41,0,0,1-37.7,6.8c-22.6,0-42.5-4.9-59.9-14.8a108.22,108.22,0,0,1-54.2-77.8h225.7c7.9,0,14.4-2.5,19.6-7.4a25,25,0,0,0,7.7-18.7q0-46.95-17.5-82.8Q1844.55,1313,1811.3,1292.7Zm-137.4,45.4q24-14.85,57.9-14.8,29.7,0,50.5,13.7t32.1,37.1a119.82,119.82,0,0,1,10.6,36.5H1627.3a120.73,120.73,0,0,1,10.2-31.8A94.49,94.49,0,0,1,1673.9,1338.1Z" transform="translate(-295.3 -1143.4)"/><path class="cls-1" d="M2154.1,1430.7c-17.2-9.1-40.7-16.6-70.3-22.6-21.4-4.4-37.6-8.8-48.7-13.4s-18.5-9.7-22.3-15.4a34.08,34.08,0,0,1-5.6-19.3c0-11.5,6-20.2,18.1-26.1s26.8-8.9,44.2-8.9c15,0,28.3,1.8,39.8,5.3s22.2,10.1,32.1,19.6a42.64,42.64,0,0,0,22,10.7c8.7,1.6,16.2.2,22.6-4.2,6.3-4.7,9.7-10.6,10.1-17.5s-2.2-13.5-7.7-19.9q-17.85-21.9-48.1-34.4t-69.4-12.5a175.18,175.18,0,0,0-58.2,9.8q-27.9,9.75-45.7,29.7t-17.8,50.2c0,23,9,42.3,27,58.2s47,27.7,87,35.6c30.9,5.5,52.1,12.7,63.8,21.4s17.3,19,16.9,30.9-6.6,21.6-18.7,29.1-29.6,11.3-52.5,11.3c-18.2,0-34.7-3.3-49.6-9.8s-25.6-13.5-32.3-21.1a32.35,32.35,0,0,0-19.9-10.4c-7.7-1-15.5,1.7-23.4,8a28.69,28.69,0,0,0-11.6,19.9c-1,8.1,1.5,15.3,7.4,21.7,13.1,13.1,31.4,23.8,54.9,32.3s49.2,12.8,76.9,12.8c28.1,0,51.5-4.3,70.3-13.1s33-20.4,42.7-35,14.5-31.1,14.5-49.3c0-15.8-3.8-29.8-11.3-41.8C2183.7,1450.3,2171.3,1439.8,2154.1,1430.7Z" transform="translate(-295.3 -1143.4)"/><path class="cls-1" d="M2315.2,1274.5c-8.7,0-15.9,2.8-21.7,8.3s-8.6,12.9-8.6,22V1569c0,8.7,2.9,15.9,8.6,21.7s13,8.6,21.7,8.6c9.1,0,16.4-2.9,22-8.6s8.3-13,8.3-21.7V1304.9c0-9.1-2.8-16.4-8.3-22S2324.3,1274.5,2315.2,1274.5Z" transform="translate(-295.3 -1143.4)"/><path class="cls-1" d="M2315.2,1143.4a39.61,39.61,0,1,0,27.6,11.6A37.33,37.33,0,0,0,2315.2,1143.4Z" transform="translate(-295.3 -1143.4)"/><path class="cls-1" d="M2692.7,1462.4c-7.5-12.1-19.9-22.6-37.1-31.8s-40.7-16.6-70.3-22.6c-21.4-4.4-37.6-8.8-48.7-13.4s-18.5-9.7-22.3-15.4a34.08,34.08,0,0,1-5.6-19.3c0-11.5,6-20.2,18.1-26.1s26.8-8.9,44.2-8.9c15,0,28.3,1.8,39.8,5.3s22.2,10.1,32.1,19.6a42.64,42.64,0,0,0,22,10.7c8.7,1.6,16.2.2,22.6-4.2,6.3-4.7,9.7-10.6,10.1-17.5s-2.2-13.5-7.7-19.9q-17.85-21.9-48.1-34.4t-69.4-12.5a175.18,175.18,0,0,0-58.2,9.8q-27.9,9.75-45.7,29.7t-17.8,50.2c0,23,9,42.3,27,58.2s47,27.7,87,35.6c30.9,5.5,52.1,12.7,63.8,21.4s17.3,19,16.9,30.9-6.6,21.6-18.7,29.1-29.6,11.3-52.5,11.3c-18.2,0-34.7-3.3-49.6-9.8s-25.6-13.5-32.3-21.1a32.35,32.35,0,0,0-19.9-10.4c-7.7-1-15.5,1.7-23.4,8a28.69,28.69,0,0,0-11.6,19.9c-1,8.1,1.5,15.3,7.4,21.7,13.1,13.1,31.4,23.8,54.9,32.3s49.2,12.8,76.9,12.8c28.1,0,51.5-4.3,70.3-13.1s33-20.4,42.7-35,14.5-31.1,14.5-49.3C2704,1488.4,2700.2,1474.5,2692.7,1462.4Z" transform="translate(-295.3 -1143.4)"/><path class="cls-1" d="M345.7,1778.4c-7.4-1.3-13.5-3.1-18.3-5.5s-8.3-5.3-10.5-8.7a20.12,20.12,0,0,1-3.3-11.2c0-7.8,2.7-13.8,8-18s12.7-6.3,22.1-6.3a37.13,37.13,0,0,1,13.7,2.2,29.85,29.85,0,0,1,9.4,5.7,39.46,39.46,0,0,1,6.2,7,5.94,5.94,0,0,0,3.1,2.3,5.52,5.52,0,0,0,3.8-.1,4.41,4.41,0,0,0,2.8-3,4.71,4.71,0,0,0-.6-4,43.54,43.54,0,0,0-8.7-9.9,47.48,47.48,0,0,0-13.2-7.6,46.1,46.1,0,0,0-16.5-2.9,50.45,50.45,0,0,0-21.2,4.2,33.06,33.06,0,0,0-14.2,11.7,30.61,30.61,0,0,0-5.1,17.6c0,9.3,3.6,17.1,10.8,23.6s17.2,10.6,30,12.4c11.1,1.5,19.3,4.8,24.8,10a25.54,25.54,0,0,1,8.1,19.1c0,6.1-1.3,11.2-3.9,15.4a24.6,24.6,0,0,1-11,9.6,39.8,39.8,0,0,1-16.9,3.3,54.73,54.73,0,0,1-15.7-2.1,34.39,34.39,0,0,1-12-6.3,31,31,0,0,1-8.1-9.6,5.82,5.82,0,0,0-2.9-2.7,5,5,0,0,0-3.8-.2,5.24,5.24,0,0,0-3.2,2.6,4.15,4.15,0,0,0,.1,3.9,40.73,40.73,0,0,0,10.3,13.1,45.71,45.71,0,0,0,15.5,8.6,62.31,62.31,0,0,0,19.8,3,51.13,51.13,0,0,0,17.1-2.7,39.52,39.52,0,0,0,13.3-7.6,33.37,33.37,0,0,0,8.6-12.2,41.61,41.61,0,0,0,3-16.1c0-10.2-3.2-18.5-9.7-25.1C371,1785.5,360.5,1781,345.7,1778.4Z" transform="translate(-295.3 -1143.4)"/><path class="cls-1" d="M839.2,1720.2H742.3a4.16,4.16,0,0,0-3.3,1.3,4.45,4.45,0,0,0-1.3,3.3,4.16,4.16,0,0,0,1.3,3.3,4.87,4.87,0,0,0,3.3,1.3h43.3v119.4a5.2,5.2,0,1,0,10.4,0V1729.4h43.3a4.16,4.16,0,0,0,3.3-1.3,4.45,4.45,0,0,0,1.3-3.3,4.16,4.16,0,0,0-1.3-3.3A4.67,4.67,0,0,0,839.2,1720.2Z" transform="translate(-295.3 -1143.4)"/><path class="cls-1" d="M1304.9,1720.2a5.31,5.31,0,0,0-3.7,1.4,4.9,4.9,0,0,0-1.5,3.8v85a34.14,34.14,0,0,1-5.3,18.8,36.45,36.45,0,0,1-14.6,12.8,51.85,51.85,0,0,1-42.7,0,35.72,35.72,0,0,1-14.6-12.8,33.84,33.84,0,0,1-5.2-18.8v-85a4.83,4.83,0,0,0-5.2-5.2,5.31,5.31,0,0,0-3.7,1.4,4.9,4.9,0,0,0-1.5,3.8v85a44.73,44.73,0,0,0,6.6,24.1,46.14,46.14,0,0,0,18.2,16.5,63.14,63.14,0,0,0,53.3,0,44.29,44.29,0,0,0,24.8-40.6v-85a5.22,5.22,0,0,0-1.4-3.8A4,4,0,0,0,1304.9,1720.2Z" transform="translate(-295.3 -1143.4)"/><path class="cls-1" d="M1772,1739a63.47,63.47,0,0,0-21.2-13.9,71.66,71.66,0,0,0-27-4.9H1693a5.31,5.31,0,0,0-3.7,1.4,4.9,4.9,0,0,0-1.5,3.8v123.5a5.12,5.12,0,0,0,5.2,5.2h30.8a71.66,71.66,0,0,0,27-4.9,61.52,61.52,0,0,0,21.2-13.9,63.47,63.47,0,0,0,13.9-21.2,71.66,71.66,0,0,0,4.9-27,70.78,70.78,0,0,0-4.9-26.9A61.52,61.52,0,0,0,1772,1739Zm1.2,77.7a54.93,54.93,0,0,1-20,20.6q-12.75,7.5-29.4,7.5h-25.7V1729.5h25.7q16.65,0,29.4,7.5a53.93,53.93,0,0,1,20,20.5c4.9,8.6,7.3,18.5,7.3,29.6S1778.1,1808,1773.2,1816.7Z" transform="translate(-295.3 -1143.4)"/><path class="cls-1" d="M2166.9,1720.2a5.12,5.12,0,0,0-5.2,5.2v123.5a5.2,5.2,0,1,0,10.4,0V1725.4a5,5,0,0,0-1.5-3.7A5.14,5.14,0,0,0,2166.9,1720.2Z" transform="translate(-295.3 -1143.4)"/><path class="cls-1" d="M2660.6,1738.1a66,66,0,0,0-21.8-14.5,75.08,75.08,0,0,0-54.4,0,66,66,0,0,0-21.8,14.5,67.62,67.62,0,0,0-14.5,21.8,75.08,75.08,0,0,0,0,54.4,66,66,0,0,0,14.5,21.8,67.62,67.62,0,0,0,21.8,14.5,75.08,75.08,0,0,0,54.4,0,67.09,67.09,0,0,0,21.8-14.5,64.54,64.54,0,0,0,14.5-21.8,75.08,75.08,0,0,0,0-54.4A67.62,67.62,0,0,0,2660.6,1738.1Zm4.9,72a55.81,55.81,0,0,1-30.9,30.9,62.58,62.58,0,0,1-46.1,0,55.81,55.81,0,0,1-30.9-30.9,62.58,62.58,0,0,1,0-46.1,55.81,55.81,0,0,1,30.9-30.9,62.58,62.58,0,0,1,46.1,0,55.81,55.81,0,0,1,30.9,30.9,60,60,0,0,1,4.4,23A58.35,58.35,0,0,1,2665.5,1810.1Z" transform="translate(-295.3 -1143.4)"/></svg>